<?xml version="1.0" encoding="UTF-8" standalone="no"?>
<svg
   xmlns:dc="http://purl.org/dc/elements/1.1/"
   xmlns:cc="http://creativecommons.org/ns#"
   xmlns:rdf="http://www.w3.org/1999/02/22-rdf-syntax-ns#"
   xmlns:svg="http://www.w3.org/2000/svg"
   xmlns="http://www.w3.org/2000/svg"
   xmlns:sodipodi="http://sodipodi.sourceforge.net/DTD/sodipodi-0.dtd"
   xmlns:inkscape="http://www.inkscape.org/namespaces/inkscape"
   inkscape:version="1.0 (4035a4fb49, 2020-05-01)"
   sodipodi:docname="alizeetoken-logo-path.svg"
   id="svg26"
   version="1.1"
   height="800"
   width="800">
  <metadata
     id="metadata32">
    <rdf:RDF>
      <cc:Work
         rdf:about="">
        <dc:format>image/svg+xml</dc:format>
        <dc:type
           rdf:resource="http://purl.org/dc/dcmitype/StillImage" />
        <dc:title></dc:title>
      </cc:Work>
    </rdf:RDF>
  </metadata>
  <defs
     id="defs30">
    <filter
       id="filter1073"
       style="color-interpolation-filters:sRGB;"
       inkscape:menu-tooltip="Overlays two copies with different blur amounts and modifiable blend and composite"
       inkscape:menu="Blurs"
       inkscape:label="Blur">
      <feGaussianBlur
         id="feGaussianBlur1065"
         result="fbSourceGraphic"
         stdDeviation="5" />
      <feGaussianBlur
         id="feGaussianBlur1067"
         result="result1"
         in="SourceGraphic"
         stdDeviation="0.01" />
      <feComposite
         id="feComposite1069"
         result="result2"
         k3="0.5"
         k2="0.5"
         in="fbSourceGraphic"
         operator="arithmetic"
         in2="result1" />
      <feBlend
         id="feBlend1071"
         result="fbSourceGraphic"
         mode="normal"
         in2="fbSourceGraphic" />
      <feColorMatrix
         id="feColorMatrix1079"
         values="0 0 0 -1 0 0 0 0 -1 0 0 0 0 -1 0 0 0 0 1 0"
         in="fbSourceGraphic"
         result="fbSourceGraphicAlpha" />
      <feGaussianBlur
         in="fbSourceGraphic"
         result="fbSourceGraphic"
         stdDeviation="10.6008 9.97785"
         id="feGaussianBlur1081" />
      <feColorMatrix
         id="feColorMatrix1083"
         values="0 0 0 -1 0 0 0 0 -1 0 0 0 0 -1 0 0 0 0 1 0"
         in="fbSourceGraphic"
         result="fbSourceGraphicAlpha" />
      <feGaussianBlur
         in="fbSourceGraphic"
         result="blur"
         stdDeviation="10.6008 9.97785"
         id="feGaussianBlur1085" />
    </filter>
    <filter
       id="filter1129"
       style="color-interpolation-filters:sRGB;"
       inkscape:menu-tooltip="Overlays two copies with different blur amounts and modifiable blend and composite"
       inkscape:menu="Blurs"
       inkscape:label="Blur Double">
      <feGaussianBlur
         id="feGaussianBlur1121"
         result="fbSourceGraphic"
         stdDeviation="5" />
      <feGaussianBlur
         id="feGaussianBlur1123"
         result="result1"
         in="SourceGraphic"
         stdDeviation="0.01" />
      <feComposite
         id="feComposite1125"
         result="result2"
         k3="0.5"
         k2="0.5"
         in="fbSourceGraphic"
         operator="arithmetic"
         in2="result1" />
      <feBlend
         id="feBlend1127"
         result="fbSourceGraphic"
         mode="normal"
         in2="fbSourceGraphic" />
      <feColorMatrix
         id="feColorMatrix1131"
         values="0 0 0 -1 0 0 0 0 -1 0 0 0 0 -1 0 0 0 0 1 0"
         in="fbSourceGraphic"
         result="fbSourceGraphicAlpha" />
      <feGaussianBlur
         in="fbSourceGraphic"
         result="fbSourceGraphic"
         stdDeviation="5"
         id="feGaussianBlur1133" />
      <feGaussianBlur
         result="result1"
         in="fbSourceGraphic"
         stdDeviation="0.01"
         id="feGaussianBlur1135" />
      <feComposite
         result="result2"
         k3="0.5"
         k2="0.5"
         in="fbSourceGraphic"
         operator="arithmetic"
         id="feComposite1137"
         in2="result1" />
      <feBlend
         result="fbSourceGraphic"
         mode="normal"
         id="feBlend1139"
         in2="fbSourceGraphic" />
      <feColorMatrix
         id="feColorMatrix1141"
         values="0 0 0 -1 0 0 0 0 -1 0 0 0 0 -1 0 0 0 0 1 0"
         in="fbSourceGraphic"
         result="fbSourceGraphicAlpha" />
      <feGaussianBlur
         in="fbSourceGraphic"
         result="fbSourceGraphic"
         stdDeviation="5"
         id="feGaussianBlur1143" />
      <feGaussianBlur
         result="result1"
         in="fbSourceGraphic"
         stdDeviation="0.01"
         id="feGaussianBlur1145" />
      <feComposite
         result="result2"
         k3="0.5"
         k2="0.5"
         in="fbSourceGraphic"
         operator="arithmetic"
         id="feComposite1147"
         in2="result1" />
      <feBlend
         result="fbSourceGraphic"
         mode="normal"
         id="feBlend1149"
         in2="fbSourceGraphic" />
      <feColorMatrix
         id="feColorMatrix1151"
         values="0 0 0 -1 0 0 0 0 -1 0 0 0 0 -1 0 0 0 0 1 0"
         in="fbSourceGraphic"
         result="fbSourceGraphicAlpha" />
      <feGaussianBlur
         in="fbSourceGraphic"
         result="fbSourceGraphic"
         stdDeviation="5"
         id="feGaussianBlur1153" />
      <feGaussianBlur
         result="result1"
         in="fbSourceGraphic"
         stdDeviation="0.01"
         id="feGaussianBlur1155" />
      <feComposite
         result="result2"
         k3="0.5"
         k2="0.5"
         in="fbSourceGraphic"
         operator="arithmetic"
         id="feComposite1157"
         in2="result1" />
      <feBlend
         result="result3"
         mode="normal"
         id="feBlend1159"
         in2="fbSourceGraphic" />
    </filter>
  </defs>
  <sodipodi:namedview
     inkscape:current-layer="layer4"
     inkscape:window-maximized="1"
     inkscape:window-y="-9"
     inkscape:window-x="2391"
     inkscape:cy="515.02832"
     inkscape:cx="22.886668"
     inkscape:zoom="1.26"
     showgrid="false"
     id="namedview28"
     inkscape:window-height="2081"
     inkscape:window-width="3840"
     inkscape:pageshadow="2"
     inkscape:pageopacity="0"
     guidetolerance="10"
     gridtolerance="10"
     objecttolerance="10"
     borderopacity="1"
     bordercolor="#666666"
     pagecolor="#ffffff">
    <inkscape:grid
       id="grid861"
       type="xygrid" />
  </sodipodi:namedview>
  <g
     inkscape:label="Circle"
     id="layer3"
     inkscape:groupmode="layer">
    <circle
       r="400"
       cy="400"
       cx="400"
       id="path873"
       style="fill:#000000;fill-opacity:1;stroke-width:1.0527" />
  </g>
  <g
     inkscape:label="Text"
     id="layer4"
     inkscape:groupmode="layer">
    <g
       style="font-size:572.41px;font-family:'Shadows Into Light', serif;text-anchor:start;display:inline;fill:#f1c2d4;fill-opacity:1;stroke:#000000;stroke-width:0"
       id="svg_2"
       transform="scale(0.98756351,1.0125931)"
       aria-label="Alz">
      <path
         id="path2070"
         style="fill:#f1c2d4;fill-opacity:1;stroke-width:0"
         d="m 139.81918,609.64761 q 1.67698,-7.82592 2.79497,-20.12379 1.11799,-12.29787 2.79497,-32.42166 2.23598,-20.12378 4.47195,-49.75047 2.79497,-29.62669 7.26693,-72.11024 4.47195,-42.48356 10.06189,-99.50096 6.14894,-57.57639 15.65184,-133.59959 0.55899,-5.58994 5.03094,-6.70793 5.03095,-1.11799 8.94391,-1.11799 6.14893,0 10.06189,4.47196 3.91296,4.47195 6.70793,10.06189 3.35397,5.58994 6.14894,11.73888 2.79497,6.14893 6.14893,10.06189 5.58994,12.85687 11.17988,29.62669 6.14894,16.76982 12.85687,35.77562 6.70793,19.0058 13.41586,38.5706 6.70793,19.0058 13.41586,37.4526 6.70793,17.88781 12.29787,33.53965 6.14893,15.09284 11.17988,25.15473 6.14893,-0.55899 17.32882,-4.47195 11.17988,-4.47195 24.03674,-8.38491 12.85687,-3.91296 25.15474,-6.14894 12.29787,-2.23597 20.68278,0 8.38491,1.67699 10.62089,9.5029 2.79497,7.82592 -3.91296,24.59575 -3.91296,0 -7.26692,-1.11799 -3.35397,-1.67699 -6.70793,-2.79497 -3.35397,-1.67699 -7.26693,-2.79497 -3.35396,-1.67699 -7.82591,-1.67699 -2.79497,0 -12.85687,3.35397 -9.5029,2.79497 -20.68278,6.70793 -11.17988,3.35396 -19.56479,7.26692 -8.38492,3.35397 -8.38492,5.03095 l 38.5706,151.4874 -14.53385,21.24178 q -9.5029,-16.21083 -16.21083,-36.89361 -6.14893,-21.24178 -11.73887,-41.92456 -5.58995,-21.24178 -11.73888,-39.12959 -5.58994,-18.4468 -14.53385,-30.74468 -11.73887,5.58995 -27.9497,9.5029 -16.21083,3.91296 -31.30367,10.0619 -15.09285,5.58994 -26.27273,15.65183 -10.62089,9.5029 -12.85686,26.27273 -1.11799,6.70793 -2.23598,17.88781 -0.55899,11.17988 -1.67698,21.24178 -1.67698,12.29787 -2.79497,25.15473 z m 64.28432,-329.24753 -1.11799,9.5029 q -0.55899,9.5029 -1.67698,22.35976 -1.11799,12.29787 -2.79497,25.71373 -1.11799,12.85687 -1.67698,21.80077 -2.79497,31.30367 -6.14894,62.04835 -2.79497,30.18568 -2.79497,62.04834 10.62089,0 22.35977,-2.79497 12.29787,-2.79497 23.47775,-7.26692 11.17988,-5.03095 20.12379,-11.73888 9.5029,-7.26692 14.53385,-16.21082 -4.47196,-19.5648 -10.0619,-40.24758 -5.03095,-21.24178 -11.17988,-42.48355 -6.14894,-21.80077 -13.41586,-42.48356 -7.26692,-20.68278 -15.65184,-40.24757 -0.55899,-0.559 -3.91295,-2.23598 -3.35397,-2.23598 -10.0619,2.23598 z" />
      <path
         id="path2072"
         style="fill:#f1c2d4;fill-opacity:1;stroke-width:0"
         d="m 375.1557,595.67276 q 3.91295,-25.71373 5.03094,-64.28433 1.67699,-38.57059 1.11799,-82.17213 0,-43.60154 -1.67698,-89.99805 -1.67698,-46.39651 -4.47195,-87.76208 -2.79497,-41.92456 -6.70793,-74.90521 -3.35397,-32.98065 -7.26693,-51.98645 5.03095,-3.35397 8.38491,-5.03095 3.91296,-2.23598 8.94391,-2.23598 3.91296,0 6.70793,1.67699 2.79497,1.11798 4.47195,5.58994 11.17989,109.56284 15.09284,220.80267 4.47196,111.23983 6.70793,221.36167 0,5.03095 0,13.97485 0,8.38492 -0.55899,8.94391 -7.82592,3.91296 -13.97485,3.91296 -6.14894,-0.55899 -11.17989,-3.35397 -5.03094,-3.35396 -7.82591,-7.26692 -2.79497,-3.91296 -2.79497,-7.26692 z" />
      <path
         id="path2074"
         style="fill:#f1c2d4;fill-opacity:1;stroke-width:0"
         d="m 518.81717,629.7714 q -2.79497,-12.85687 1.67698,-32.98065 5.03095,-20.68279 13.97486,-44.71953 8.9439,-24.03675 20.68278,-49.75048 12.29787,-25.71373 23.47775,-48.63249 11.73888,-23.47775 20.68278,-42.48355 8.94391,-19.0058 12.29787,-30.18568 0,-0.559 0,-1.11799 0.559,-1.11799 0.559,-2.23598 0,-1.11799 -0.559,-2.23597 0,-1.11799 0,-1.67699 -15.65183,6.14894 -34.65763,13.97486 -18.44681,7.26692 -37.45261,14.53384 -19.0058,6.70793 -37.4526,12.85687 -17.88781,5.58994 -32.98066,8.9439 -2.23597,1.67699 -7.82591,-1.11798 -5.58994,-2.79497 -10.62089,-7.26693 -5.03095,-5.03094 -7.26692,-10.06189 -1.67699,-5.58994 3.91295,-10.0619 18.44681,0 43.60155,-7.26692 25.15473,-7.82592 50.86846,-17.88781 26.27272,-10.06189 50.86846,-19.56479 25.15474,-10.0619 44.16054,-13.97486 18.4468,0 18.4468,18.44681 0,20.12379 -7.26692,39.68858 -6.70793,19.0058 -17.32882,37.45261 -10.06189,18.4468 -22.35976,36.33461 -11.73888,17.88782 -22.35977,36.33462 -10.06189,18.44681 -17.32881,37.45261 -7.26693,19.0058 -7.26693,39.12958 v 6.70793 l 204.59185,-41.92455 h 3.91296 q 7.82592,0 13.97485,5.03094 6.70793,4.47196 9.5029,10.62089 3.35397,5.58994 0.559,11.73888 -2.79498,6.14893 -13.97486,8.9439 -2.23597,0 -5.03094,0.559 -2.23598,0.55899 -10.62089,2.23597 -7.82592,1.11799 -23.47776,3.91296 -15.65183,2.23598 -44.16053,7.26693 -27.94971,5.03094 -71.55125,13.41585 -43.04254,7.82592 -106.20888,19.5648 z" />
    </g>
  </g>
</svg>
